<?xml version="1.0" encoding="utf-8"?>
<!-- Generator: Adobe Illustrator 24.2.3, SVG Export Plug-In . SVG Version: 6.00 Build 0)  -->
<svg version="1.1" id="Layer_1" xmlns="http://www.w3.org/2000/svg" xmlns:xlink="http://www.w3.org/1999/xlink" x="0px" y="0px"
	 viewBox="0 0 1368 689.1" style="enable-background:new 0 0 1368 689.1;" xml:space="preserve">
<style type="text/css">
	.st0{display:none;}
	.st1{enable-background:new    ;}
</style>
<g id="Layer_1_1_" class="st0">
	
		<image style="display:inline;overflow:visible;opacity:0.32;enable-background:new    ;" width="500" height="300" xlink:href="EDDD5F18443CD14A.jpeg"  transform="matrix(1 0 0 1 184 387.5169)">
	</image>
</g>
<g id="Layer_2_1_">
	<g class="st1">
		<path d="M140.8,166.8c-4.3-7.6-10.6-13.9-18.8-18.8c-8.2-4.9-17.1-7.4-26.8-7.4c-10.4,0-19.7,2-28.1,6.1
			c-8.3,4.1-15.5,9.7-21.4,16.9c-5.9,7.2-10.5,15.6-13.7,25.3c-3.2,9.7-4.7,20.2-4.7,31.5c0,11.3,1.6,21.7,4.7,31.3
			c3.2,9.6,7.6,18,13.5,25.1c5.8,7.2,12.9,12.8,21.3,16.9c8.3,4.1,17.7,6.1,28.1,6.1c11.4,0,21-2.4,28.8-7.2
			c7.8-4.8,14.3-11,19.4-18.6l19.4,16.1c-7.6,10.4-16.9,18.7-27.9,24.9c-11,6.2-24.2,9.3-39.7,9.3c-14.4,0-27.5-2.6-39.1-7.8
			c-11.6-5.2-21.6-12.5-29.8-21.8c-8.2-9.3-14.6-20.3-19.2-32.9C2.3,249.2,0,235.4,0,220.5c0-14.9,2.3-28.7,6.8-41.4
			c4.6-12.7,10.9-23.7,19.2-32.9c8.2-9.3,18.1-16.5,29.8-21.8c11.6-5.2,24.7-7.8,39.1-7.8c11.9,0,24,2.9,36.2,8.7
			c12.3,5.8,22.2,14.3,29.8,25.6L140.8,166.8z"/>
		<path d="M230,154.2c4.8-11.5,12.8-20.7,23.9-27.5c11.1-6.8,23-10.1,35.7-10.1c22.5,0,39.4,7.5,50.7,22.4
			c11.3,14.9,16.9,34.6,16.9,59.1v121.2h-25.8V209.9c0-10.4-0.8-19.9-2.3-28.3c-1.5-8.4-4.1-15.7-7.8-21.8
			c-3.7-6.1-8.6-10.8-14.8-14.2c-6.2-3.4-14-5.1-23.3-5.1c-6.8,0-13.5,1.6-19.9,4.6c-6.5,3.1-12.2,7.8-17.3,14.2
			c-5.1,6.3-9.1,14.4-12.1,24.1s-4.6,21.2-4.6,34.4v101.4h-25.8V0h25.8v154.2H230z"/>
		<path d="M535.8,191.4c0-17-4-29.8-12.1-38.2c-8.1-8.4-19.9-12.6-35.3-12.6c-10.6,0-20.5,2.1-29.6,6.3c-9.1,4.2-16.8,9.9-23.1,16.9
			l-14.4-19c7.3-8.2,17-14.9,29-20.3c12-5.3,25.6-8,40.8-8c9.6,0,18.6,1.5,26.9,4.4c8.3,3,15.7,7.4,22,13.3
			c6.3,5.9,11.3,13.4,14.8,22.4c3.5,9,5.3,19.6,5.3,31.7V275c0,7.6,0.2,15.5,0.8,23.7c0.5,8.2,1.3,15.1,2.3,20.7H540
			c-0.8-4.8-1.4-10-1.9-15.6c-0.5-5.6-0.8-11.1-0.8-16.5h-0.8c-8.1,13.2-17.3,22.7-27.5,28.5s-22.6,8.7-37,8.7
			c-6.8,0-13.9-1.1-21.1-3.2c-7.2-2.1-13.8-5.6-19.7-10.4c-5.9-4.8-10.9-11-14.8-18.7c-3.9-7.6-5.9-16.9-5.9-28
			c0-15.3,3.5-27.3,10.4-36.2c7-8.9,16.3-15.5,27.9-19.9c11.6-4.4,25-7.2,40-8.5c15-1.3,30.7-1.9,46.9-1.9V191.4z M528.2,220.5
			c-10.6,0-21.3,0.5-32.1,1.5c-10.8,1-20.5,3-29.2,5.9c-8.7,3-15.9,7.3-21.4,12.9c-5.6,5.6-8.3,13.1-8.3,22.4c0,7,1.2,13,3.6,17.7
			c2.4,4.8,5.6,8.7,9.7,11.6c4,3,8.5,5.1,13.5,6.3c4.9,1.3,9.9,1.9,15,1.9c9.1,0,17.2-1.8,24.3-5.3c7.1-3.5,13-8.3,17.8-14.4
			c4.8-6.1,8.5-13,11-20.9c2.5-7.9,3.8-16.2,3.8-24.9v-14.8H528.2z"/>
		<path d="M626.1,144.5c-0.3-8.4-0.6-16.1-1.1-22.8h24.7c0.5,5.4,0.9,11.3,1.1,17.7c0.2,6.5,0.4,11.8,0.4,16.1h0.8
			c5.1-11.5,12.6-20.9,22.8-28.1c10.1-7.2,21.5-10.8,34.2-10.8c3.3,0,6.3,0.1,8.9,0.4c2.7,0.3,5.4,0.8,8.2,1.7l-3.4,27.5
			c-1.5-0.6-4.1-1.1-7.6-1.7c-3.5-0.6-7.1-0.8-10.6-0.8c-6.8,0-13.4,1.4-19.7,4.2c-6.3,2.8-11.8,7.2-16.5,13.3
			c-4.7,6-8.5,13.8-11.4,23.2c-2.9,9.4-4.4,20.7-4.4,33.9v101.1h-25.8V165.2C626.5,159.8,626.4,152.9,626.1,144.5z"/>
		<path d="M789.7,319.3h-25.8V0h25.8V319.3z"/>
		<path d="M890.2,45.6c0,5.9-1.9,10.8-5.7,14.6c-3.8,3.8-8,5.7-12.5,5.7c-4.6,0-8.7-1.9-12.5-5.7c-3.8-3.8-5.7-8.7-5.7-14.6
			s1.9-10.8,5.7-14.6c3.8-3.8,8-5.7,12.5-5.7c4.6,0,8.7,1.9,12.5,5.7C888.4,34.8,890.2,39.7,890.2,45.6z M884.9,319.3h-25.8V121.6
			h25.8V319.3z"/>
		<path d="M1115.3,214.6c0,2,0,4.1,0,6.3c0,2.3-0.1,4.6-0.4,7.2H967.7c0.2,9.9,2,19.2,5.3,27.9c3.3,8.7,7.8,16.3,13.7,22.8
			c5.8,6.5,12.6,11.6,20.5,15.4c7.8,3.8,16.3,5.7,25.4,5.7c13.4,0,25-3.4,34.7-10.3c9.7-6.9,17.1-14.9,22.2-23.9l19.4,16.9
			c-10.6,14.9-22.3,25.6-35.1,32.1c-12.8,6.5-26.5,9.7-41.2,9.7c-13.2,0-25.4-2.6-36.6-7.8c-11.3-5.2-20.9-12.5-29-21.8
			c-8.1-9.3-14.5-20.3-19.2-32.9c-4.7-12.7-7-26.5-7-41.4c0-14.9,2.3-28.7,6.8-41.4c4.6-12.7,10.9-23.7,19-32.9
			c8.1-9.3,17.6-16.5,28.5-21.8c10.9-5.2,22.6-7.8,35.3-7.8c13.9,0,26.2,2.6,36.8,7.8c10.6,5.2,19.5,12.2,26.6,21.1
			c7.1,8.9,12.5,19.2,16.1,31C1113.4,188.4,1115.3,201.1,1115.3,214.6z M1089.1,205.3c-0.8-18.6-6.1-34-16.1-46.3
			c-10-12.2-24.2-18.4-42.7-18.4c-8.6,0-16.6,1.8-23.9,5.3c-7.3,3.5-13.8,8.3-19.4,14.4c-5.6,6.1-10,13-13.3,20.7
			c-3.3,7.7-5.2,15.8-5.7,24.3H1089.1z"/>
		<path d="M1174.1,119.5h-21.6l25.4-99.3h26.9L1174.1,119.5z"/>
		<path d="M1331.2,168.5c-3.8-8.2-9.6-14.8-17.3-20.1c-7.7-5.2-16.5-7.8-26.4-7.8c-4.6,0-9.1,0.6-13.7,1.7c-4.6,1.1-8.6,3-12.1,5.5
			c-3.5,2.5-6.4,5.8-8.5,9.7c-2.2,3.9-3.2,8.6-3.2,13.9c0,9.3,3.4,16.4,10.2,21.3c6.8,4.9,17.6,9.1,32.3,12.5
			c21,4.8,36.5,11.8,46.5,20.9c10,9.2,15,21.5,15,37c0,11.3-2,20.8-5.9,28.5c-3.9,7.7-9,14.1-15.4,19c-6.3,4.9-13.5,8.4-21.4,10.6
			c-8,2.1-16,3.2-24.1,3.2c-13.4,0-26.4-3.1-39.1-9.3c-12.7-6.2-23-15.9-31.1-29.1l20.5-16.9c4.6,8.7,11.3,16.1,20.1,22
			c8.9,5.9,18.6,8.9,29.2,8.9c5.6,0,10.9-0.6,15.9-1.7c5.1-1.1,9.5-3.1,13.3-5.9c3.8-2.8,6.8-6.4,9.1-10.8c2.3-4.4,3.4-9.8,3.4-16.3
			c0-10.4-4.5-18.2-13.5-23.4c-9-5.2-22-10.1-38.9-14.6c-5.3-1.4-10.9-3.2-16.9-5.3c-5.9-2.1-11.4-5.2-16.5-9.3
			c-5.1-4.1-9.2-9.2-12.5-15.4c-3.3-6.2-4.9-13.9-4.9-23.2c0-10.1,1.8-18.8,5.3-26c3.5-7.2,8.3-13.1,14.2-17.7
			c5.9-4.6,12.7-8.1,20.3-10.3c7.6-2.3,15.4-3.4,23.5-3.4c12.4,0,24.4,3.1,36.1,9.3c11.6,6.2,20.4,14.9,26.2,26.2L1331.2,168.5z"/>
	</g>
	<g class="st1">
		<path d="M829.9,531.6c-4.3-7.6-10.6-13.9-18.8-18.8c-8.2-4.9-17.1-7.4-26.8-7.4c-10.4,0-19.7,2-28.1,6.1
			c-8.3,4.1-15.5,9.7-21.4,16.9c-5.9,7.2-10.5,15.6-13.7,25.3c-3.2,9.7-4.7,20.2-4.7,31.5c0,11.3,1.6,21.7,4.7,31.3
			c3.2,9.6,7.6,18,13.5,25.1c5.8,7.2,12.9,12.8,21.3,16.9c8.3,4.1,17.7,6.1,28.1,6.1c11.4,0,21-2.4,28.8-7.2
			c7.8-4.8,14.3-11,19.4-18.6l19.4,16.1c-7.6,10.4-16.9,18.7-27.9,24.9c-11,6.2-24.2,9.3-39.7,9.3c-14.4,0-27.5-2.6-39.1-7.8
			c-11.6-5.2-21.6-12.5-29.8-21.8c-8.2-9.3-14.6-20.3-19.2-32.9c-4.6-12.7-6.8-26.5-6.8-41.4c0-14.9,2.3-28.7,6.8-41.4
			c4.6-12.7,10.9-23.7,19.2-32.9c8.2-9.3,18.2-16.5,29.8-21.8c11.6-5.2,24.7-7.8,39.1-7.8c11.9,0,24,2.9,36.2,8.7
			c12.3,5.8,22.2,14.3,29.8,25.6L829.9,531.6z"/>
		<path d="M1003.7,556.1c0-17-4.1-29.8-12.1-38.2c-8.1-8.4-19.9-12.6-35.3-12.6c-10.6,0-20.5,2.1-29.6,6.3
			c-9.1,4.2-16.8,9.9-23.1,16.9l-14.4-19c7.3-8.2,17-14.9,29-20.3c12-5.3,25.6-8,40.8-8c9.6,0,18.6,1.5,26.9,4.4
			c8.3,3,15.7,7.4,22,13.3c6.3,5.9,11.3,13.4,14.8,22.4c3.5,9,5.3,19.6,5.3,31.7v86.6c0,7.6,0.2,15.5,0.8,23.7
			c0.5,8.2,1.3,15.1,2.3,20.7h-23.1c-0.8-4.8-1.4-10-1.9-15.6c-0.5-5.6-0.8-11.1-0.8-16.5h-0.8c-8.1,13.2-17.3,22.7-27.5,28.5
			c-10.2,5.8-22.6,8.7-37,8.7c-6.8,0-13.9-1.1-21.1-3.2c-7.2-2.1-13.8-5.6-19.7-10.4c-5.9-4.8-10.9-11-14.8-18.7
			c-3.9-7.6-5.9-16.9-5.9-28c0-15.3,3.5-27.3,10.4-36.2c7-8.9,16.3-15.5,27.9-19.9c11.6-4.4,25-7.2,40-8.5c15-1.3,30.7-1.9,46.9-1.9
			V556.1z M996.1,585.2c-10.6,0-21.3,0.5-32.1,1.5c-10.8,1-20.5,3-29.2,5.9c-8.7,3-15.9,7.3-21.4,12.9c-5.6,5.6-8.3,13.1-8.3,22.4
			c0,7,1.2,13,3.6,17.7c2.4,4.8,5.6,8.7,9.7,11.6c4,3,8.5,5.1,13.5,6.3c4.9,1.3,9.9,1.9,15,1.9c9.1,0,17.2-1.8,24.3-5.3
			c7.1-3.5,13-8.3,17.8-14.4c4.8-6.1,8.5-13,11-20.9c2.5-7.9,3.8-16.2,3.8-24.9v-14.8H996.1z"/>
		<path d="M1169.5,510.5h-41.7v173.6H1102V510.5h-37.2v-24.1h37.2v-54.1c0-22.5,4.9-40.3,14.8-53.2c9.9-12.9,25-19.4,45.5-19.4
			c3.3,0,6.8,0.2,10.6,0.6c3.8,0.4,7.3,1.2,10.6,2.3L1179,388c-2.8-0.8-5.6-1.5-8.3-2.1c-2.8-0.6-5.9-0.8-9.5-0.8
			c-6.8,0-12.5,1.3-16.9,3.8c-4.4,2.5-7.8,6.1-10.2,10.8c-2.4,4.6-4.1,10.1-4.9,16.3c-0.9,6.2-1.3,12.8-1.3,19.9v50.7h41.7V510.5z"
			/>
		<path d="M1368,579.3c0,2,0,4.1,0,6.3c0,2.3-0.1,4.6-0.4,7.2h-147.2c0.2,9.9,2,19.2,5.3,27.9c3.3,8.7,7.8,16.3,13.7,22.8
			c5.8,6.5,12.6,11.6,20.5,15.4c7.8,3.8,16.3,5.7,25.4,5.7c13.4,0,25-3.4,34.7-10.3c9.7-6.9,17.1-14.8,22.2-23.9l19.4,16.9
			c-10.6,14.9-22.3,25.6-35.1,32.1c-12.8,6.5-26.5,9.7-41.2,9.7c-13.2,0-25.4-2.6-36.6-7.8c-11.3-5.2-20.9-12.5-29-21.8
			c-8.1-9.3-14.5-20.3-19.2-32.9c-4.7-12.7-7-26.5-7-41.4c0-14.9,2.3-28.7,6.8-41.4c4.6-12.7,10.9-23.7,19-32.9
			c8.1-9.3,17.6-16.5,28.5-21.8c10.9-5.2,22.6-7.8,35.3-7.8c13.9,0,26.2,2.6,36.8,7.8c10.6,5.2,19.5,12.2,26.6,21.1
			c7.1,8.9,12.5,19.2,16.1,31C1366.2,553.1,1368,565.8,1368,579.3z M1341.8,570c-0.8-18.6-6.1-34-16.1-46.3
			c-10-12.2-24.2-18.4-42.7-18.4c-8.6,0-16.6,1.8-23.9,5.3c-7.3,3.5-13.8,8.3-19.4,14.4c-5.6,6.1-10,13-13.3,20.7
			c-3.3,7.7-5.2,15.8-5.7,24.3H1341.8z"/>
	</g>
	<g>
		<path d="M509.1,684.8c-59.2,0-146.1-21.1-189.9-86.7c-43.8,65.6-130.7,86.7-189.9,86.7C22.4,684.8-15.3,572.9,26.3,504
			c35.6-58.8,69.9-6.9,71.1-5c-1.1-0.7-30.6-21.9-43,11.8c-15.1,41,13.2,92.2,56.2,47.7c43-44.6,150.5-148.6,208.5-61.9
			c57.9-86.7,165.4,17.3,208.4,61.9c43,44.5,71.3-6.7,56.2-47.7c-12.4-33.7-41.9-12.5-43-11.8c1.2-1.9,35.5-53.8,71.1,5
			C653.7,573,615.9,684.8,509.1,684.8z"/>
	</g>
</g>
</svg>
