<?xml version="1.0" encoding="utf-8"?>
<!-- Generator: Adobe Illustrator 24.2.3, SVG Export Plug-In . SVG Version: 6.00 Build 0)  -->
<svg version="1.1" id="Layer_1" xmlns="http://www.w3.org/2000/svg" xmlns:xlink="http://www.w3.org/1999/xlink" x="0px" y="0px"
	 viewBox="0 0 735.6 328.8" style="enable-background:new 0 0 735.6 328.8;" xml:space="preserve">
<style type="text/css">
	.st0{fill:#010101;}
	.st1{fill:#A05D2F;}
</style>
<g>
	<path class="st0" d="M-553.5,639.3c-59.2,0-146-21.1-189.8-86.5c-43.8,65.5-130.7,86.5-189.8,86.5c-106.9,0-168.8-88.8-127.2-157.7
		c35.6-58.8,94.2-30,95.4-28.1c-1.1-0.7-31.2-10.2-45,18.7c-10.2,27.8,9.9,45.4,24.9,47.5c13.2,1.8,29.3-0.4,47-15.9
		c37.7-32.8,101.2-126.6,194.8-52.7c93.6-73.8,157.1,19.9,194.8,52.7c17.8,15.4,33.8,17.7,47,15.9c14.9-2.1,35.1-19.7,24.9-47.5
		c-13.8-28.9-43.9-19.4-45-18.7c1.2-1.9,59.8-30.7,95.4,28.1C-384.7,550.5-446.6,639.3-553.5,639.3z"/>
</g>
<g>
	<path class="st1" d="M168.1,215.9v59.6c-22.3,38.4-66.5,50.7-96.7,50.7c-54.4,0-86-52.1-64.8-92.5c18.1-34.5,48-17.6,48.6-16.5
		c-0.6-0.4-15.9-6-22.9,11c-5.2,16.3,4.4,23,10.3,25.5c6.3,2.6,17.2,2.1,26.3-7C88.1,227.5,101.5,177,168.1,215.9z"/>
</g>
<g>
	<path class="st1" d="M168.1,215.9v59.6c22.3,38.4,66.5,50.7,96.7,50.7c54.4,0,86-52.1,64.8-92.5c-18.1-34.5-48-17.6-48.6-16.5
		c0.6-0.4,15.9-6,22.9,11c5.2,16.3-4.4,23-10.3,25.5c-6.3,2.6-17.2,2.1-26.3-7C248.1,227.5,234.7,177,168.1,215.9z"/>
</g>
<g>
	<path class="st1" d="M82.6,80.4c-2-3.1-5-5.6-9-7.7c-4-2.1-8.3-3.1-12.8-3.1c-4.9,0-9.3,0.9-13.1,2.8c-3.8,1.9-7,4.4-9.7,7.5
		c-2.7,3.1-4.7,6.8-6.1,10.9c-1.4,4.1-2.1,8.5-2.1,13c0,4.5,0.7,8.9,2.1,13c1.4,4.1,3.4,7.8,6.1,10.9c2.7,3.1,5.9,5.6,9.8,7.5
		c3.9,1.9,8.3,2.8,13.2,2.8c4.8,0,9.2-0.9,13.1-2.8c3.9-1.9,7.2-4.4,9.7-7.6L96.4,139c-4,4.7-9,8.3-15,10.9
		c-6,2.6-12.8,3.9-20.4,3.9c-7.3,0-14.1-1.2-20.3-3.6c-6.2-2.4-11.6-5.8-16.1-10.1c-4.5-4.3-8.1-9.6-10.7-15.7
		c-2.6-6.1-3.9-13-3.9-20.6c0-7.5,1.3-14.3,3.8-20.4c2.5-6.1,6.1-11.4,10.6-15.8c4.5-4.4,9.9-7.8,16.1-10.2
		c6.2-2.4,12.9-3.6,20.1-3.6c6.7,0,13.3,1.3,19.9,4c6.6,2.7,11.8,6.5,15.7,11.6L82.6,80.4z"/>
	<path class="st1" d="M134.6,70.8c2.3-4.7,6.1-8.7,11.6-12c5.5-3.3,11.6-5,18.4-5c6.1,0,11.4,1,15.8,3.1c4.4,2.1,8.1,4.8,11,8.3
		c2.9,3.5,5.1,7.5,6.5,12.2c1.4,4.7,2.1,9.7,2.1,15v58.8h-18.8V98.7c0-3.9-0.3-7.6-0.9-11s-1.7-6.5-3.3-9.2
		c-1.6-2.7-3.8-4.8-6.5-6.4c-2.7-1.6-6.3-2.4-10.7-2.4c-7.5,0-13.6,2.8-18.4,8.5c-4.8,5.7-7.2,13.3-7.2,22.8v50.3h-18.8V0h18.8v70.8
		H134.6z"/>
	<path class="st1" d="M290.8,89.8c0-7.1-2.1-12.3-6.4-15.7c-4.3-3.4-9.9-5.1-17-5.1c-5.3,0-10.4,1-15.1,3.1
		c-4.7,2.1-8.7,4.7-11.9,7.9l-10-12c4.7-4.4,10.4-7.9,17.1-10.4c6.7-2.5,14-3.8,21.7-3.8c6.8,0,12.7,1,17.7,2.9
		c5,1.9,9.1,4.6,12.3,7.9c3.2,3.3,5.6,7.3,7.2,11.8c1.6,4.5,2.4,9.4,2.4,14.6v41.4c0,3.2,0.1,6.6,0.3,10.1c0.2,3.5,0.6,6.4,1.1,8.7
		h-17c-1.1-4.5-1.6-9.1-1.6-13.6H291c-3.5,5.1-7.8,9-13.1,11.8c-5.3,2.8-11.5,4.2-18.7,4.2c-3.7,0-7.6-0.5-11.7-1.5
		c-4.1-1-7.8-2.6-11.1-4.9c-3.3-2.3-6.1-5.3-8.3-9c-2.2-3.7-3.3-8.3-3.3-13.8c0-7.2,1.9-12.9,5.8-17.1c3.9-4.2,8.9-7.4,15.2-9.6
		c6.3-2.2,13.3-3.6,21.2-4.3c7.9-0.7,15.8-1,23.8-1V89.8z M286.2,106c-4.7,0-9.5,0.2-14.5,0.6s-9.5,1.2-13.6,2.4
		c-4.1,1.2-7.4,3-10.1,5.4c-2.7,2.4-4,5.6-4,9.6c0,2.8,0.6,5.1,1.7,7c1.1,1.9,2.6,3.4,4.5,4.6c1.9,1.2,3.9,2,6.2,2.5
		c2.3,0.5,4.6,0.7,7,0.7c8.8,0,15.6-2.6,20.3-7.9c4.7-5.3,7.1-11.9,7.1-19.9v-5H286.2z"/>
	<path class="st1" d="M340,67c-0.1-4-0.3-7.5-0.6-10.6h17.8c0.3,2.4,0.5,5.2,0.6,8.3c0.1,3.1,0.2,5.7,0.2,7.7h0.6
		c2.7-5.6,6.6-10.1,11.7-13.5c5.1-3.4,10.9-5.1,17.3-5.1c2.9,0,5.4,0.3,7.4,0.8L394.2,72c-2.7-0.7-5.5-1-8.6-1
		c-4.5,0-8.5,0.8-11.8,2.5c-3.3,1.7-6.1,3.9-8.3,6.7s-3.8,6-4.9,9.7c-1.1,3.7-1.6,7.5-1.6,11.5v49.8h-18.8V76.8
		C340.2,74.3,340.1,71,340,67z"/>
	<path class="st1" d="M431.8,151.2H413V0h18.8V151.2z"/>
	<path class="st1" d="M486.6,22.2c0,3.5-1.2,6.3-3.7,8.6c-2.4,2.3-5.4,3.4-8.8,3.4s-6.3-1.2-8.7-3.5c-2.4-2.3-3.6-5.2-3.6-8.5
		c0-3.5,1.2-6.4,3.6-8.7c2.4-2.3,5.3-3.5,8.7-3.5s6.4,1.2,8.8,3.5C485.4,15.8,486.6,18.7,486.6,22.2z M483.6,151.2h-18.8V56.4h18.8
		V151.2z"/>
	<path class="st1" d="M605,103c0,1.1,0,2.1,0,3.2c0,1.1-0.1,2.1-0.2,3.2h-75.4c0.1,4,1,7.7,2.7,11.2c1.7,3.5,3.9,6.6,6.7,9.1
		c2.8,2.6,6,4.6,9.7,6.1c3.7,1.5,7.6,2.2,11.7,2.2c6.4,0,11.9-1.4,16.6-4.2c4.7-2.8,8.3-6.2,11-10.2l13.2,10.6
		c-5.1,6.7-11,11.7-17.9,14.8c-6.9,3.2-14.5,4.8-22.9,4.8c-7.2,0-13.9-1.2-20-3.6c-6.1-2.4-11.4-5.8-15.8-10.1
		c-4.4-4.3-7.9-9.6-10.4-15.7c-2.5-6.1-3.8-12.9-3.8-20.4c0-7.3,1.2-14.1,3.7-20.3c2.5-6.2,5.9-11.5,10.3-15.9s9.6-7.8,15.6-10.3
		c6-2.5,12.5-3.7,19.4-3.7c6.9,0,13.3,1.1,18.9,3.4c5.7,2.3,10.5,5.5,14.4,9.8c3.9,4.3,7,9.4,9.1,15.5C603.9,88.6,605,95.4,605,103z
		 M585.8,95.4c-0.1-3.7-0.8-7.2-1.9-10.5c-1.1-3.3-2.8-6.1-5-8.5c-2.2-2.4-4.9-4.3-8.2-5.7c-3.3-1.4-7.1-2.1-11.5-2.1
		c-4,0-7.8,0.7-11.3,2.1c-3.5,1.4-6.6,3.3-9.2,5.7c-2.6,2.4-4.7,5.2-6.4,8.5c-1.7,3.3-2.6,6.8-2.9,10.5H585.8z"/>
	<path class="st1" d="M639,59.6h-15.8l13.8-50h18.6L639,59.6z"/>
	<path class="st1" d="M721.8,80.4c-2.1-3.5-5.1-6.3-9-8.5c-3.9-2.2-8.2-3.3-13-3.3c-2.1,0-4.3,0.2-6.4,0.7c-2.1,0.5-4,1.2-5.7,2.2
		c-1.7,1-3,2.3-4,3.8c-1,1.5-1.5,3.4-1.5,5.7c0,4,1.8,7,5.4,8.9c3.6,1.9,9,3.7,16.2,5.3c4.5,1.1,8.7,2.3,12.6,3.8
		c3.9,1.5,7.2,3.3,10.1,5.5c2.9,2.2,5.1,4.8,6.7,7.9c1.6,3.1,2.4,6.7,2.4,10.8c0,5.6-1.1,10.3-3.2,14.2c-2.1,3.9-5,7-8.5,9.5
		c-3.5,2.5-7.6,4.2-12.1,5.3c-4.5,1.1-9.2,1.6-14,1.6c-7.2,0-14.2-1.4-21.1-4.2c-6.9-2.8-12.6-7.1-17.1-12.8l13.4-11.4
		c2.5,3.7,6,6.9,10.5,9.4c4.5,2.5,9.4,3.8,14.7,3.8c2.4,0,4.7-0.2,6.9-0.7c2.2-0.5,4.2-1.2,6-2.3c1.8-1.1,3.2-2.5,4.3-4.2
		c1.1-1.7,1.6-3.9,1.6-6.6c0-4.4-2.1-7.7-6.3-9.8c-4.2-2.1-10.4-4.1-18.5-6c-3.2-0.8-6.4-1.8-9.7-2.9c-3.3-1.1-6.2-2.7-8.9-4.7
		c-2.7-2-4.8-4.5-6.5-7.5c-1.7-3-2.5-6.7-2.5-11.1c0-5.1,1-9.4,3.1-13.1c2.1-3.7,4.8-6.7,8.1-9c3.3-2.3,7.1-4.1,11.4-5.2
		c4.3-1.1,8.7-1.7,13.2-1.7c6.8,0,13.4,1.3,19.7,4c6.3,2.7,11.2,6.5,14.7,11.6L721.8,80.4z"/>
</g>
<g>
	<path class="st1" d="M442,255.4c-2-3.1-5-5.6-9-7.7c-4-2.1-8.3-3.1-12.8-3.1c-4.9,0-9.3,0.9-13.1,2.8c-3.8,1.9-7,4.4-9.7,7.5
		c-2.7,3.1-4.7,6.8-6.1,10.9c-1.4,4.1-2.1,8.5-2.1,13c0,4.5,0.7,8.9,2.1,13c1.4,4.1,3.4,7.8,6.1,10.9c2.7,3.1,5.9,5.6,9.8,7.5
		c3.9,1.9,8.3,2.8,13.2,2.8c4.8,0,9.2-0.9,13.1-2.8c3.9-1.9,7.2-4.4,9.7-7.6l12.6,11.4c-4,4.7-9,8.3-15,10.9s-12.8,3.9-20.4,3.9
		c-7.3,0-14.1-1.2-20.3-3.6c-6.2-2.4-11.6-5.8-16.1-10.1c-4.5-4.3-8.1-9.6-10.7-15.7c-2.6-6.1-3.9-13-3.9-20.6
		c0-7.5,1.3-14.3,3.8-20.4c2.5-6.1,6.1-11.4,10.6-15.8c4.5-4.4,9.9-7.8,16.1-10.2c6.2-2.4,12.9-3.6,20.1-3.6c6.7,0,13.3,1.3,19.9,4
		c6.6,2.7,11.8,6.5,15.7,11.6L442,255.4z"/>
	<path class="st1" d="M533.4,264.8c0-7.1-2.1-12.3-6.4-15.7c-4.3-3.4-9.9-5.1-17-5.1c-5.3,0-10.4,1-15.1,3.1
		c-4.7,2.1-8.7,4.7-11.9,7.9l-10-12c4.7-4.4,10.4-7.9,17.1-10.4c6.7-2.5,14-3.8,21.7-3.8c6.8,0,12.7,1,17.7,2.9
		c5,1.9,9.1,4.6,12.3,7.9c3.2,3.3,5.6,7.3,7.2,11.8c1.6,4.5,2.4,9.4,2.4,14.6v41.4c0,3.2,0.1,6.6,0.3,10.1c0.2,3.5,0.6,6.4,1.1,8.7
		h-17c-1.1-4.5-1.6-9.1-1.6-13.6h-0.6c-3.5,5.1-7.8,9-13.1,11.8c-5.3,2.8-11.5,4.2-18.7,4.2c-3.7,0-7.6-0.5-11.7-1.5
		c-4.1-1-7.8-2.6-11.1-4.9c-3.3-2.3-6.1-5.3-8.3-9c-2.2-3.7-3.3-8.3-3.3-13.8c0-7.2,1.9-12.9,5.8-17.1c3.9-4.2,8.9-7.4,15.2-9.6
		c6.3-2.2,13.3-3.6,21.2-4.3c7.9-0.7,15.8-1,23.8-1V264.8z M528.8,281c-4.7,0-9.5,0.2-14.5,0.6c-5,0.4-9.5,1.2-13.6,2.4
		c-4.1,1.2-7.4,3-10.1,5.4c-2.7,2.4-4,5.6-4,9.6c0,2.8,0.6,5.1,1.7,7c1.1,1.9,2.6,3.4,4.5,4.6c1.9,1.2,3.9,2,6.2,2.5
		c2.3,0.5,4.6,0.7,7,0.7c8.8,0,15.6-2.6,20.3-7.9c4.7-5.3,7.1-11.9,7.1-19.9v-5H528.8z"/>
	<path class="st1" d="M627.4,246.8h-22v79.4h-18.8v-79.4h-18.8v-15.4h18.8v-19.8c0-5.6,0.6-10.8,1.9-15.5c1.3-4.7,3.3-8.8,6.2-12.3
		c2.9-3.5,6.5-6.2,11-8.2c4.5-2,9.9-3,16.3-3c4.5,0,8.5,0.5,11.8,1.4l-2.2,16.2c-1.5-0.4-2.9-0.7-4.4-1c-1.5-0.3-3.1-0.4-5-0.4
		c-3.6,0-6.5,0.6-8.7,1.9c-2.2,1.3-3.9,3-5.1,5.1c-1.2,2.1-2,4.6-2.4,7.3c-0.4,2.7-0.6,5.6-0.6,8.5v19.8h22V246.8z"/>
	<path class="st1" d="M733.4,278c0,1.1,0,2.1,0,3.2c0,1.1-0.1,2.1-0.2,3.2h-75.4c0.1,4,1,7.7,2.7,11.2c1.7,3.5,3.9,6.6,6.7,9.1
		c2.8,2.6,6,4.6,9.7,6.1c3.7,1.5,7.6,2.2,11.7,2.2c6.4,0,11.9-1.4,16.6-4.2c4.7-2.8,8.3-6.2,11-10.2l13.2,10.6
		c-5.1,6.7-11,11.7-17.9,14.8c-6.9,3.2-14.5,4.8-22.9,4.8c-7.2,0-13.9-1.2-20-3.6c-6.1-2.4-11.4-5.8-15.8-10.1
		c-4.4-4.3-7.9-9.6-10.4-15.7c-2.5-6.1-3.8-12.9-3.8-20.4c0-7.3,1.2-14.1,3.7-20.3c2.5-6.2,5.9-11.5,10.3-15.9s9.6-7.8,15.6-10.3
		c6-2.5,12.5-3.7,19.4-3.7c6.9,0,13.3,1.1,18.9,3.4c5.7,2.3,10.5,5.5,14.4,9.8c3.9,4.3,7,9.4,9.1,15.5
		C732.3,263.6,733.4,270.4,733.4,278z M714.2,270.4c-0.1-3.7-0.8-7.2-1.9-10.5c-1.1-3.3-2.8-6.1-5-8.5c-2.2-2.4-4.9-4.3-8.2-5.7
		c-3.3-1.4-7.1-2.1-11.5-2.1c-4,0-7.8,0.7-11.3,2.1c-3.5,1.4-6.6,3.3-9.2,5.7c-2.6,2.4-4.7,5.2-6.4,8.5c-1.7,3.3-2.6,6.8-2.9,10.5
		H714.2z"/>
</g>
</svg>
